<svg xmlns="http://www.w3.org/2000/svg" xmlns:xlink="http://www.w3.org/1999/xlink" width="217" height="217" viewBox="0 0 217 217">
    <defs>
        <path id="a" d="M0 206.5h206.5V0H0z"/>
    </defs>
    <g fill="none" fill-rule="evenodd" transform="translate(5 5)">
        <path stroke="#3B8CF7" stroke-width="3" d="M205 103.25C205 159.445 159.445 205 103.25 205S1.5 159.445 1.5 103.25 47.055 1.5 103.25 1.5 205 47.055 205 103.25z"/>
        <path fill="#D1E7FD" d="M137.327 171.115c0 2.061-15.627 3.73-34.904 3.73s-34.904-1.669-34.904-3.73c0-2.059 15.627-3.729 34.904-3.729s34.904 1.67 34.904 3.73"/>
        <path fill="#3B8CF7" d="M78.621 59.053a6.807 6.807 0 0 0-4.842 2.005 6.81 6.81 0 0 0-2.007 4.845v1.66a6.858 6.858 0 0 0 6.85 6.85c3.777 0 6.851-3.072 6.851-6.85v-1.66c0-1.83-.71-3.55-2.005-4.843a6.808 6.808 0 0 0-4.845-2.007h-.002zm.001 17.913c-5.185 0-9.402-4.22-9.402-9.403v-1.66c0-2.512.978-4.873 2.755-6.65a9.343 9.343 0 0 1 6.646-2.753h.002c2.513 0 4.873.979 6.65 2.754a9.336 9.336 0 0 1 2.752 6.65v1.66c0 5.184-4.218 9.402-9.403 9.402zM70.986 145.304h-2.553l.005-52.322h2.553zM79.894 145.304H77.34l.003-32.968h2.552zM88.8 145.305h-2.552l.004-34.244h5.757c.927 0 1.68-.754 1.68-1.68v-8.048h2.553v8.048a4.238 4.238 0 0 1-4.233 4.233h-3.204l-.004 31.69z"/>
        <path fill="#3B8CF7" d="M69.713 113.61h-4.481a4.239 4.239 0 0 1-4.234-4.233L61 88.904a8.746 8.746 0 0 1 6.004-8.315c7.492-2.483 15.745-2.483 23.236.001a8.746 8.746 0 0 1 6.002 8.317v4.036h-2.551v-4.036a6.2 6.2 0 0 0-4.254-5.894 34.551 34.551 0 0 0-21.63-.002 6.2 6.2 0 0 0-4.255 5.893l-.002 20.473c0 .926.754 1.68 1.68 1.68h4.482v2.553z"/>
        <mask id="b" fill="#fff">
            <use xlink:href="#a"/>
        </mask>
        <path fill="#2A6FEA" d="M77.687 94.307h18.556v-2.552H77.687z" mask="url(#b)"/>
        <path fill="#2A6FEA" d="M83.228 100.215L76.112 93.1l7.116-7.115 1.805 1.804-5.313 5.31 5.313 5.31z" mask="url(#b)"/>
        <path fill="#3B8CF7" d="M127.77 59.053h-.002a6.859 6.859 0 0 0-6.85 6.85v1.66c.001 3.777 3.076 6.85 6.852 6.85 3.776 0 6.85-3.073 6.85-6.85v-1.66a6.81 6.81 0 0 0-2.007-4.845 6.811 6.811 0 0 0-4.843-2.005m0 17.913c-5.182 0-9.401-4.218-9.404-9.401v-1.661c0-5.185 4.218-9.404 9.401-9.404h.004c2.51 0 4.87.978 6.646 2.753a9.337 9.337 0 0 1 2.755 6.65v1.66c0 5.184-4.218 9.403-9.401 9.403M135.407 145.304l-.008-52.322h2.553l.008 52.322zM126.499 145.304l-.003-32.968h2.553l.002 32.968zM117.593 145.305l-.005-31.691h-3.203a4.237 4.237 0 0 1-4.234-4.233v-8.048h2.55v8.048c0 .926.757 1.68 1.684 1.68h5.755l.006 34.244h-2.553z" mask="url(#b)"/>
        <path fill="#3B8CF7" d="M141.16 113.61h-4.479v-2.553h4.48c.927 0 1.68-.754 1.68-1.68l-.003-20.473a6.196 6.196 0 0 0-4.253-5.893 34.565 34.565 0 0 0-21.63.002 6.2 6.2 0 0 0-4.255 5.894v4.036h-2.553v-4.036a8.75 8.75 0 0 1 6.005-8.317 37.122 37.122 0 0 1 23.236 0 8.746 8.746 0 0 1 6.002 8.314l.002 20.473a4.238 4.238 0 0 1-4.232 4.233" mask="url(#b)"/>
        <path fill="#2A6FEA" d="M110.147 102.307h18.558v-2.552h-18.558z" mask="url(#b)"/>
        <path fill="#2A6FEA" d="M123.166 108.215l-1.805-1.805 5.31-5.31-5.31-5.311 1.805-1.804 7.114 7.115z" mask="url(#b)"/>
        <path fill="#8EDC4F" d="M50.535 75.167l1.252-2.221 2.22 1.251-1.25 2.222-2.222-1.252zm-2.552 5.437l1.021-2.348 2.323 1.02-1.02 2.348-2.324-1.02zm-2.016 5.64l.791-2.424 2.425.766-.766 2.449-2.45-.791zm-1.404 5.82l.536-2.476 2.475.511-.254 1.251-.256 1.251-2.5-.537zm-.842 5.948l.28-2.528 2.553.281-.28 2.527-2.553-.28zm-.205 5.997v-2.552l2.553.025-.025 2.553-2.528-.026zm.23 4.722l-.103-1.276 2.553-.229.204 2.552-2.526.204-.128-1.251zm.842 5.922l-.229-1.251 2.501-.484.485 2.501-2.5.484-.257-1.25zm1.43 5.82l-.358-1.201 2.426-.739.74 2.45-2.426.715-.383-1.225zm2.016 5.667l-.484-1.176 2.347-.994.996 2.373-2.374.97-.485-1.173zm2.577 5.41l-.61-1.123 2.244-1.199 1.2 2.246-2.247 1.199-.587-1.123zm3.09 5.131l-.715-1.047 2.118-1.43 1.43 2.094-2.119 1.429-.714-1.046zM150.565 71.363l-.716-1.046 2.12-1.429.714 1.047.716 1.072-2.119 1.43-.715-1.074zm2.961 4.927l-.589-1.123 2.246-1.225 1.201 2.245-2.246 1.226-.612-1.123zm2.475 5.181l-.484-1.174 2.348-.995.97 2.373-2.348.971-.486-1.175zm1.914 5.412l-.356-1.226 2.45-.74.357 1.224.358 1.226-2.426.716-.383-1.2zm1.38 5.564l-.255-1.25 2.524-.486.461 2.501-2.502.485-.229-1.25zm.791 5.691l-.102-1.276 2.524-.228.233 2.551-2.528.205-.127-1.252zm.23 6.996l.024-2.553 2.553.024-.025 2.553-2.552-.024zm-.486 5.742l.281-2.552 2.553.28-.283 2.552-2.55-.28zm-1.02 5.64l.536-2.5 2.5.535-.536 2.501-2.5-.536zm-1.61 5.513l.793-2.424 2.425.765-.792 2.426-2.426-.767zm-2.144 5.31l1.022-2.324 2.348 1.022-.51 1.175-.537 1.173-2.323-1.046zm-2.679 5.08l1.251-2.222 2.221 1.25-.613 1.125-.639 1.122-2.22-1.276z" mask="url(#b)"/>
    </g>
</svg>
