<svg xmlns="http://www.w3.org/2000/svg" width="217" height="217" viewBox="0 0 217 217">
    <g fill="none" fill-rule="evenodd">
        <path stroke="#3B8CF7" stroke-width="3" d="M211.5 108.25c0 57.023-46.227 103.25-103.25 103.25S5 165.273 5 108.25 51.227 5 108.25 5 211.5 51.227 211.5 108.25z"/>
        <path fill="#D1E7FD" d="M143.154 176.115c0 2.061-15.627 3.73-34.903 3.73-19.279 0-34.906-1.669-34.906-3.73 0-2.059 15.627-3.729 34.906-3.729 19.275 0 34.903 1.67 34.903 3.73M138.32 110.13l-3.588-13.391a7.657 7.657 0 0 1-9.377-5.415L69.35 106.33a7.658 7.658 0 0 1-5.415 9.379l3.588 13.39a7.658 7.658 0 0 1 9.38 5.416l56.003-15.007a7.656 7.656 0 0 1 5.415-9.378"/>
        <path fill="#FFF" d="M108.525 110.939a7.657 7.657 0 0 1-5.415 9.378 7.658 7.658 0 1 1 5.415-9.378"/>
        <path fill="#F9DA52" d="M141.607 135.426l-.7-2.61 24.78-6.64.7 2.61z"/>
        <path fill="#8EDC4F" d="M98.621 82.2l-.699-2.61 2.525-.678.7 2.61zM92.263 83.902l-.7-2.609 4.338-1.162.7 2.61zM49.16 95.453l-.7-2.61L88.9 82.007l.7 2.61zM101.737 146.11l-.698-2.61 2.525-.678.699 2.61zM95.38 147.813l-.7-2.61 4.337-1.162.7 2.608zM75.711 153.082l-.699-2.61 17.005-4.556.7 2.61z"/>
        <path fill="#3B8CF7" d="M52.35 102.769l11.61 43.33 85.946-23.026-11.611-43.331-85.944 23.027zm9.7 46.64l-13.008-48.55 91.163-24.427 13.01 48.55L62.05 149.41z"/>
        <path fill="#3B8CF7" d="M101.126 106.613c-.539 0-1.087.068-1.632.215a6.316 6.316 0 0 0-4.458 7.723 6.267 6.267 0 0 0 2.94 3.83 6.247 6.247 0 0 0 4.784.63c3.358-.899 5.358-4.366 4.46-7.723a6.32 6.32 0 0 0-6.094-4.675m-.013 15.32a8.945 8.945 0 0 1-4.49-1.212 8.943 8.943 0 0 1-4.196-5.469 8.953 8.953 0 0 1 .898-6.836 8.954 8.954 0 0 1 5.471-4.198c4.787-1.285 9.747 1.571 11.034 6.371 1.284 4.796-1.573 9.746-6.37 11.033a9.046 9.046 0 0 1-2.347.311"/>
        <path fill="#3B8CF7" d="M69.502 127.488a9.039 9.039 0 0 1 8.258 5.398l53.59-14.359a9.029 9.029 0 0 1 5.341-9.254l-2.94-10.976a8.938 8.938 0 0 1-5.505-1.153 8.937 8.937 0 0 1-3.75-4.19l-53.588 14.358a8.93 8.93 0 0 1-1.153 5.505 8.94 8.94 0 0 1-4.19 3.751l2.94 10.975c.333-.036.666-.055.997-.055zm6.445 8.682l-.349-1.306c-.903-3.357-4.37-5.355-7.726-4.459l-1.305.35-4.287-16 1.306-.35a6.272 6.272 0 0 0 3.83-2.938 6.27 6.27 0 0 0 .63-4.787l-.35-1.304L126.31 89.67l.35 1.305a6.267 6.267 0 0 0 2.937 3.83 6.25 6.25 0 0 0 4.786.63l1.305-.349 4.287 16.001-1.306.35a6.316 6.316 0 0 0-4.458 7.724l.35 1.305-58.614 15.705zM60.757 109.082l-.699-2.609 2.61-.701.698 2.611zM68.784 139.04l-.699-2.61 2.61-.7.698 2.61zM131.558 90.111l-.7-2.609 2.61-.7.7 2.61zM139.584 120.067l-.699-2.609 2.61-.7.698 2.61z"/>
        <path fill="#3B8CF7" d="M116.751 110.132l-.699-2.61 4.654-1.246.698 2.61zM81.551 119.564l-.699-2.608 4.652-1.248.699 2.61z"/>
        <path fill="#FFF" d="M153.413 138.5c-7.857 0-14.25-6.393-14.25-14.25s6.393-14.25 14.25-14.25 14.25 6.393 14.25 14.25-6.393 14.25-14.25 14.25"/>
        <path fill="#2A6FEA" d="M153.413 108.5c-8.698 0-15.75 7.052-15.75 15.75s7.052 15.75 15.75 15.75 15.75-7.052 15.75-15.75-7.052-15.75-15.75-15.75m0 3c7.03 0 12.75 5.72 12.75 12.75s-5.72 12.75-12.75 12.75-12.75-5.72-12.75-12.75 5.72-12.75 12.75-12.75"/>
        <path stroke="#2A6FEA" stroke-width="3" d="M158.875 118.788l-11 11M158.875 129.788l-11-11"/>
    </g>
</svg>
