<svg xmlns="http://www.w3.org/2000/svg" width="81" height="22" viewBox="0 0 81 22">
    <g fill="#FF2F57" fill-rule="evenodd">
        <path fill-rule="nonzero" d="M9.042 13H7.17L5.718 7.168h-.024L4.266 13H2.358L.09 4.432h1.884l1.356 5.832h.024l1.488-5.832h1.764l1.464 5.904h.024l1.404-5.904h1.848L9.042 13zm5.328-3.312h2.22l-1.08-3.144h-.024L14.37 9.688zm.18-5.256h1.932L19.686 13H17.73l-.648-1.908h-3.204L13.206 13H11.31l3.24-8.568zm7.776 1.584h-2.568V4.432h7.02v1.584H24.21V13h-1.884V6.016zm11.148 1.296a1.538 1.538 0 0 0-.216-.594 1.937 1.937 0 0 0-.99-.792 1.959 1.959 0 0 0-.666-.114c-.424 0-.784.082-1.08.246a2.04 2.04 0 0 0-.72.66c-.184.276-.318.59-.402.942a4.688 4.688 0 0 0-.126 1.092c0 .36.042.71.126 1.05.084.34.218.646.402.918.184.272.424.49.72.654.296.164.656.246 1.08.246.576 0 1.026-.176 1.35-.528.324-.352.522-.816.594-1.392h1.824a4.356 4.356 0 0 1-.372 1.452c-.2.432-.464.8-.792 1.104a3.367 3.367 0 0 1-1.152.696c-.44.16-.924.24-1.452.24-.656 0-1.246-.114-1.77-.342a3.793 3.793 0 0 1-1.326-.942 4.17 4.17 0 0 1-.828-1.41 5.175 5.175 0 0 1-.288-1.746c0-.64.096-1.234.288-1.782a4.28 4.28 0 0 1 .828-1.434c.36-.408.802-.728 1.326-.96.524-.232 1.114-.348 1.77-.348.472 0 .918.068 1.338.204.42.136.796.334 1.128.594.332.26.606.582.822.966.216.384.352.824.408 1.32h-1.824zm3.18-2.88h1.884V7.72h3.468V4.432h1.884V13h-1.884V9.304h-3.468V13h-1.884V4.432zm12.228 0h1.872l3.576 5.748h.024V4.432h1.764V13h-1.884L50.67 7.264h-.024V13h-1.764V4.432zm10.404 4.32c0 .36.042.71.126 1.05.084.34.218.646.402.918.184.272.424.49.72.654.296.164.656.246 1.08.246.424 0 .784-.082 1.08-.246a2.06 2.06 0 0 0 .72-.654c.184-.272.318-.578.402-.918.084-.34.126-.69.126-1.05 0-.376-.042-.74-.126-1.092a2.892 2.892 0 0 0-.402-.942 2.04 2.04 0 0 0-.72-.66c-.296-.164-.656-.246-1.08-.246-.424 0-.784.082-1.08.246a2.04 2.04 0 0 0-.72.66c-.184.276-.318.59-.402.942a4.688 4.688 0 0 0-.126 1.092zm-1.884 0c0-.64.096-1.234.288-1.782a4.28 4.28 0 0 1 .828-1.434c.36-.408.802-.728 1.326-.96.524-.232 1.114-.348 1.77-.348.664 0 1.256.116 1.776.348a3.8 3.8 0 0 1 1.32.96c.36.408.636.886.828 1.434.192.548.288 1.142.288 1.782 0 .624-.096 1.206-.288 1.746a4.17 4.17 0 0 1-.828 1.41c-.36.4-.8.714-1.32.942-.52.228-1.112.342-1.776.342-.656 0-1.246-.114-1.77-.342a3.793 3.793 0 0 1-1.326-.942 4.17 4.17 0 0 1-.828-1.41 5.175 5.175 0 0 1-.288-1.746zM75.27 13h-1.872l-1.452-5.832h-.024L70.494 13h-1.908l-2.268-8.568h1.884l1.356 5.832h.024l1.488-5.832h1.764l1.464 5.904h.024l1.404-5.904h1.848L75.27 13zm3.072-1.848h1.884V13h-1.884v-1.848zm1.824-4.416l-.468 3.696h-.852l-.456-3.696V4.432h1.776v2.304z"/>
        <path d="M0 17h81v2H0z"/>
    </g>
</svg>
