<svg version="1.1" baseProfile="tiny" xmlns="http://www.w3.org/2000/svg" width="250" height="250" ><rect xmlns="http://www.w3.org/2000/svg" shape-rendering="optimizeSpeed" width="250" height="250" fill="#fff" x="0" y="0"/><rect shape-rendering="optimizeSpeed" fill="#000" x="10" y="10"  width="8.03103448275862" height="8.03103448275862"></rect><rect shape-rendering="optimizeSpeed" fill="#000" x="17.93103448275862" y="10"  width="8.03103448275862" height="8.03103448275862"></rect><rect shape-rendering="optimizeSpeed" fill="#000" x="25.862068965517242" y="10"  width="8.03103448275862" height="8.03103448275862"></rect><rect shape-rendering="optimizeSpeed" fill="#000" x="33.793103448275865" y="10"  width="8.03103448275862" height="8.03103448275862"></rect><rect shape-rendering="optimizeSpeed" fill="#000" x="41.724137931034484" y="10"  width="8.03103448275862" height="8.03103448275862"></rect><rect shape-rendering="optimizeSpeed" fill="#000" x="49.6551724137931" y="10"  width="8.03103448275862" height="8.03103448275862"></rect><rect shape-rendering="optimizeSpeed" fill="#000" x="57.58620689655173" y="10"  width="8.03103448275862" height="8.03103448275862"></rect><rect shape-rendering="optimizeSpeed" fill="#000" x="81.37931034482759" y="10"  width="8.03103448275862" height="8.03103448275862"></rect><rect shape-rendering="optimizeSpeed" fill="#000" x="105.17241379310346" y="10"  width="8.03103448275862" height="8.03103448275862"></rect><rect shape-rendering="optimizeSpeed" fill="#000" x="128.9655172413793" y="10"  width="8.03103448275862" height="8.03103448275862"></rect><rect shape-rendering="optimizeSpeed" fill="#000" x="136.89655172413794" y="10"  width="8.03103448275862" height="8.03103448275862"></rect><rect shape-rendering="optimizeSpeed" fill="#000" x="152.75862068965517" y="10"  width="8.03103448275862" height="8.03103448275862"></rect><rect shape-rendering="optimizeSpeed" fill="#000" x="160.6896551724138" y="10"  width="8.03103448275862" height="8.03103448275862"></rect><rect shape-rendering="optimizeSpeed" fill="#000" x="184.48275862068965" y="10"  width="8.03103448275862" height="8.03103448275862"></rect><rect shape-rendering="optimizeSpeed" fill="#000" x="192.41379310344828" y="10"  width="8.03103448275862" height="8.03103448275862"></rect><rect shape-rendering="optimizeSpeed" fill="#000" x="200.34482758620692" y="10"  width="8.03103448275862" height="8.03103448275862"></rect><rect shape-rendering="optimizeSpeed" fill="#000" x="208.27586206896552" y="10"  width="8.03103448275862" height="8.03103448275862"></rect><rect shape-rendering="optimizeSpeed" fill="#000" x="216.20689655172416" y="10"  width="8.03103448275862" height="8.03103448275862"></rect><rect shape-rendering="optimizeSpeed" fill="#000" x="224.13793103448276" y="10"  width="8.03103448275862" height="8.03103448275862"></rect><rect shape-rendering="optimizeSpeed" fill="#000" x="232.0689655172414" y="10"  width="8.03103448275862" height="8.03103448275862"></rect><rect shape-rendering="optimizeSpeed" fill="#000" x="10" y="17.93103448275862"  width="8.03103448275862" height="8.03103448275862"></rect><rect shape-rendering="optimizeSpeed" fill="#000" x="57.58620689655173" y="17.93103448275862"  width="8.03103448275862" height="8.03103448275862"></rect><rect shape-rendering="optimizeSpeed" fill="#000" x="73.44827586206897" y="17.93103448275862"  width="8.03103448275862" height="8.03103448275862"></rect><rect shape-rendering="optimizeSpeed" fill="#000" x="97.24137931034483" y="17.93103448275862"  width="8.03103448275862" height="8.03103448275862"></rect><rect shape-rendering="optimizeSpeed" fill="#000" x="105.17241379310346" y="17.93103448275862"  width="8.03103448275862" height="8.03103448275862"></rect><rect shape-rendering="optimizeSpeed" fill="#000" x="113.10344827586208" y="17.93103448275862"  width="8.03103448275862" height="8.03103448275862"></rect><rect shape-rendering="optimizeSpeed" fill="#000" x="121.0344827586207" y="17.93103448275862"  width="8.03103448275862" height="8.03103448275862"></rect><rect shape-rendering="optimizeSpeed" fill="#000" x="128.9655172413793" y="17.93103448275862"  width="8.03103448275862" height="8.03103448275862"></rect><rect shape-rendering="optimizeSpeed" fill="#000" x="152.75862068965517" y="17.93103448275862"  width="8.03103448275862" height="8.03103448275862"></rect><rect shape-rendering="optimizeSpeed" fill="#000" x="168.6206896551724" y="17.93103448275862"  width="8.03103448275862" height="8.03103448275862"></rect><rect shape-rendering="optimizeSpeed" fill="#000" x="184.48275862068965" y="17.93103448275862"  width="8.03103448275862" height="8.03103448275862"></rect><rect shape-rendering="optimizeSpeed" fill="#000" x="232.0689655172414" y="17.93103448275862"  width="8.03103448275862" height="8.03103448275862"></rect><rect shape-rendering="optimizeSpeed" fill="#000" x="10" y="25.862068965517242"  width="8.03103448275862" height="8.03103448275862"></rect><rect shape-rendering="optimizeSpeed" fill="#000" x="25.862068965517242" y="25.862068965517242"  width="8.03103448275862" height="8.03103448275862"></rect><rect shape-rendering="optimizeSpeed" fill="#000" x="33.793103448275865" y="25.862068965517242"  width="8.03103448275862" height="8.03103448275862"></rect><rect shape-rendering="optimizeSpeed" fill="#000" x="41.724137931034484" y="25.862068965517242"  width="8.03103448275862" height="8.03103448275862"></rect><rect shape-rendering="optimizeSpeed" fill="#000" x="57.58620689655173" y="25.862068965517242"  width="8.03103448275862" height="8.03103448275862"></rect><rect shape-rendering="optimizeSpeed" fill="#000" x="73.44827586206897" y="25.862068965517242"  width="8.03103448275862" height="8.03103448275862"></rect><rect shape-rendering="optimizeSpeed" fill="#000" x="81.37931034482759" y="25.862068965517242"  width="8.03103448275862" height="8.03103448275862"></rect><rect shape-rendering="optimizeSpeed" fill="#000" x="89.3103448275862" y="25.862068965517242"  width="8.03103448275862" height="8.03103448275862"></rect><rect shape-rendering="optimizeSpeed" fill="#000" x="97.24137931034483" y="25.862068965517242"  width="8.03103448275862" height="8.03103448275862"></rect><rect shape-rendering="optimizeSpeed" fill="#000" x="105.17241379310346" y="25.862068965517242"  width="8.03103448275862" height="8.03103448275862"></rect><rect shape-rendering="optimizeSpeed" fill="#000" x="136.89655172413794" y="25.862068965517242"  width="8.03103448275862" height="8.03103448275862"></rect><rect shape-rendering="optimizeSpeed" fill="#000" x="144.82758620689657" y="25.862068965517242"  width="8.03103448275862" height="8.03103448275862"></rect><rect shape-rendering="optimizeSpeed" fill="#000" x="152.75862068965517" y="25.862068965517242"  width="8.03103448275862" height="8.03103448275862"></rect><rect shape-rendering="optimizeSpeed" fill="#000" x="184.48275862068965" y="25.862068965517242"  width="8.03103448275862" height="8.03103448275862"></rect><rect shape-rendering="optimizeSpeed" fill="#000" x="200.34482758620692" y="25.862068965517242"  width="8.03103448275862" height="8.03103448275862"></rect><rect shape-rendering="optimizeSpeed" fill="#000" x="208.27586206896552" y="25.862068965517242"  width="8.03103448275862" height="8.03103448275862"></rect><rect shape-rendering="optimizeSpeed" fill="#000" x="216.20689655172416" y="25.862068965517242"  width="8.03103448275862" height="8.03103448275862"></rect><rect shape-rendering="optimizeSpeed" fill="#000" x="232.0689655172414" y="25.862068965517242"  width="8.03103448275862" height="8.03103448275862"></rect><rect shape-rendering="optimizeSpeed" fill="#000" x="10" y="33.793103448275865"  width="8.03103448275862" height="8.03103448275862"></rect><rect shape-rendering="optimizeSpeed" fill="#000" x="25.862068965517242" y="33.793103448275865"  width="8.03103448275862" height="8.03103448275862"></rect><rect shape-rendering="optimizeSpeed" fill="#000" x="33.793103448275865" y="33.793103448275865"  width="8.03103448275862" height="8.03103448275862"></rect><rect shape-rendering="optimizeSpeed" fill="#000" x="41.724137931034484" y="33.793103448275865"  width="8.03103448275862" height="8.03103448275862"></rect><rect shape-rendering="optimizeSpeed" fill="#000" x="57.58620689655173" y="33.793103448275865"  width="8.03103448275862" height="8.03103448275862"></rect><rect shape-rendering="optimizeSpeed" fill="#000" x="81.37931034482759" y="33.793103448275865"  width="8.03103448275862" height="8.03103448275862"></rect><rect shape-rendering="optimizeSpeed" fill="#000" x="89.3103448275862" y="33.793103448275865"  width="8.03103448275862" height="8.03103448275862"></rect><rect shape-rendering="optimizeSpeed" fill="#000" x="97.24137931034483" y="33.793103448275865"  width="8.03103448275862" height="8.03103448275862"></rect><rect shape-rendering="optimizeSpeed" fill="#000" x="136.89655172413794" y="33.793103448275865"  width="8.03103448275862" height="8.03103448275862"></rect><rect shape-rendering="optimizeSpeed" fill="#000" x="160.6896551724138" y="33.793103448275865"  width="8.03103448275862" height="8.03103448275862"></rect><rect shape-rendering="optimizeSpeed" fill="#000" x="184.48275862068965" y="33.793103448275865"  width="8.03103448275862" height="8.03103448275862"></rect><rect shape-rendering="optimizeSpeed" fill="#000" x="200.34482758620692" y="33.793103448275865"  width="8.03103448275862" height="8.03103448275862"></rect><rect shape-rendering="optimizeSpeed" fill="#000" x="208.27586206896552" y="33.793103448275865"  width="8.03103448275862" height="8.03103448275862"></rect><rect shape-rendering="optimizeSpeed" fill="#000" x="216.20689655172416" y="33.793103448275865"  width="8.03103448275862" height="8.03103448275862"></rect><rect shape-rendering="optimizeSpeed" fill="#000" x="232.0689655172414" y="33.793103448275865"  width="8.03103448275862" height="8.03103448275862"></rect><rect shape-rendering="optimizeSpeed" fill="#000" x="10" y="41.724137931034484"  width="8.03103448275862" height="8.03103448275862"></rect><rect shape-rendering="optimizeSpeed" fill="#000" x="25.862068965517242" y="41.724137931034484"  width="8.03103448275862" height="8.03103448275862"></rect><rect shape-rendering="optimizeSpeed" fill="#000" x="33.793103448275865" y="41.724137931034484"  width="8.03103448275862" height="8.03103448275862"></rect><rect shape-rendering="optimizeSpeed" fill="#000" x="41.724137931034484" y="41.724137931034484"  width="8.03103448275862" height="8.03103448275862"></rect><rect shape-rendering="optimizeSpeed" fill="#000" x="57.58620689655173" y="41.724137931034484"  width="8.03103448275862" height="8.03103448275862"></rect><rect shape-rendering="optimizeSpeed" fill="#000" x="73.44827586206897" y="41.724137931034484"  width="8.03103448275862" height="8.03103448275862"></rect><rect shape-rendering="optimizeSpeed" fill="#000" x="113.10344827586208" y="41.724137931034484"  width="8.03103448275862" height="8.03103448275862"></rect><rect shape-rendering="optimizeSpeed" fill="#000" x="128.9655172413793" y="41.724137931034484"  width="8.03103448275862" height="8.03103448275862"></rect><rect shape-rendering="optimizeSpeed" fill="#000" x="160.6896551724138" y="41.724137931034484"  width="8.03103448275862" height="8.03103448275862"></rect><rect shape-rendering="optimizeSpeed" fill="#000" x="184.48275862068965" y="41.724137931034484"  width="8.03103448275862" height="8.03103448275862"></rect><rect shape-rendering="optimizeSpeed" fill="#000" x="200.34482758620692" y="41.724137931034484"  width="8.03103448275862" height="8.03103448275862"></rect><rect shape-rendering="optimizeSpeed" fill="#000" x="208.27586206896552" y="41.724137931034484"  width="8.03103448275862" height="8.03103448275862"></rect><rect shape-rendering="optimizeSpeed" fill="#000" x="216.20689655172416" y="41.724137931034484"  width="8.03103448275862" height="8.03103448275862"></rect><rect shape-rendering="optimizeSpeed" fill="#000" x="232.0689655172414" y="41.724137931034484"  width="8.03103448275862" height="8.03103448275862"></rect><rect shape-rendering="optimizeSpeed" fill="#000" x="10" y="49.6551724137931"  width="8.03103448275862" height="8.03103448275862"></rect><rect shape-rendering="optimizeSpeed" fill="#000" x="57.58620689655173" y="49.6551724137931"  width="8.03103448275862" height="8.03103448275862"></rect><rect shape-rendering="optimizeSpeed" fill="#000" x="73.44827586206897" y="49.6551724137931"  width="8.03103448275862" height="8.03103448275862"></rect><rect shape-rendering="optimizeSpeed" fill="#000" x="81.37931034482759" y="49.6551724137931"  width="8.03103448275862" height="8.03103448275862"></rect><rect shape-rendering="optimizeSpeed" fill="#000" x="97.24137931034483" y="49.6551724137931"  width="8.03103448275862" height="8.03103448275862"></rect><rect shape-rendering="optimizeSpeed" fill="#000" x="113.10344827586208" y="49.6551724137931"  width="8.03103448275862" height="8.03103448275862"></rect><rect shape-rendering="optimizeSpeed" fill="#000" x="128.9655172413793" y="49.6551724137931"  width="8.03103448275862" height="8.03103448275862"></rect><rect shape-rendering="optimizeSpeed" fill="#000" x="152.75862068965517" y="49.6551724137931"  width="8.03103448275862" height="8.03103448275862"></rect><rect shape-rendering="optimizeSpeed" fill="#000" x="160.6896551724138" y="49.6551724137931"  width="8.03103448275862" height="8.03103448275862"></rect><rect shape-rendering="optimizeSpeed" fill="#000" x="184.48275862068965" y="49.6551724137931"  width="8.03103448275862" height="8.03103448275862"></rect><rect shape-rendering="optimizeSpeed" fill="#000" x="232.0689655172414" y="49.6551724137931"  width="8.03103448275862" height="8.03103448275862"></rect><rect shape-rendering="optimizeSpeed" fill="#000" x="10" y="57.58620689655173"  width="8.03103448275862" height="8.03103448275862"></rect><rect shape-rendering="optimizeSpeed" fill="#000" x="17.93103448275862" y="57.58620689655173"  width="8.03103448275862" height="8.03103448275862"></rect><rect shape-rendering="optimizeSpeed" fill="#000" x="25.862068965517242" y="57.58620689655173"  width="8.03103448275862" height="8.03103448275862"></rect><rect shape-rendering="optimizeSpeed" fill="#000" x="33.793103448275865" y="57.58620689655173"  width="8.03103448275862" height="8.03103448275862"></rect><rect shape-rendering="optimizeSpeed" fill="#000" x="41.724137931034484" y="57.58620689655173"  width="8.03103448275862" height="8.03103448275862"></rect><rect shape-rendering="optimizeSpeed" fill="#000" x="49.6551724137931" y="57.58620689655173"  width="8.03103448275862" height="8.03103448275862"></rect><rect shape-rendering="optimizeSpeed" fill="#000" x="57.58620689655173" y="57.58620689655173"  width="8.03103448275862" height="8.03103448275862"></rect><rect shape-rendering="optimizeSpeed" fill="#000" x="73.44827586206897" y="57.58620689655173"  width="8.03103448275862" height="8.03103448275862"></rect><rect shape-rendering="optimizeSpeed" fill="#000" x="89.3103448275862" y="57.58620689655173"  width="8.03103448275862" height="8.03103448275862"></rect><rect shape-rendering="optimizeSpeed" fill="#000" x="105.17241379310346" y="57.58620689655173"  width="8.03103448275862" height="8.03103448275862"></rect><rect shape-rendering="optimizeSpeed" fill="#000" x="121.0344827586207" y="57.58620689655173"  width="8.03103448275862" height="8.03103448275862"></rect><rect shape-rendering="optimizeSpeed" fill="#000" x="136.89655172413794" y="57.58620689655173"  width="8.03103448275862" height="8.03103448275862"></rect><rect shape-rendering="optimizeSpeed" fill="#000" x="152.75862068965517" y="57.58620689655173"  width="8.03103448275862" height="8.03103448275862"></rect><rect shape-rendering="optimizeSpeed" fill="#000" x="168.6206896551724" y="57.58620689655173"  width="8.03103448275862" height="8.03103448275862"></rect><rect shape-rendering="optimizeSpeed" fill="#000" x="184.48275862068965" y="57.58620689655173"  width="8.03103448275862" height="8.03103448275862"></rect><rect shape-rendering="optimizeSpeed" fill="#000" x="192.41379310344828" y="57.58620689655173"  width="8.03103448275862" height="8.03103448275862"></rect><rect shape-rendering="optimizeSpeed" fill="#000" x="200.34482758620692" y="57.58620689655173"  width="8.03103448275862" height="8.03103448275862"></rect><rect shape-rendering="optimizeSpeed" fill="#000" x="208.27586206896552" y="57.58620689655173"  width="8.03103448275862" height="8.03103448275862"></rect><rect shape-rendering="optimizeSpeed" fill="#000" x="216.20689655172416" y="57.58620689655173"  width="8.03103448275862" height="8.03103448275862"></rect><rect shape-rendering="optimizeSpeed" fill="#000" x="224.13793103448276" y="57.58620689655173"  width="8.03103448275862" height="8.03103448275862"></rect><rect shape-rendering="optimizeSpeed" fill="#000" x="232.0689655172414" y="57.58620689655173"  width="8.03103448275862" height="8.03103448275862"></rect><rect shape-rendering="optimizeSpeed" fill="#000" x="73.44827586206897" y="65.51724137931035"  width="8.03103448275862" height="8.03103448275862"></rect><rect shape-rendering="optimizeSpeed" fill="#000" x="81.37931034482759" y="65.51724137931035"  width="8.03103448275862" height="8.03103448275862"></rect><rect shape-rendering="optimizeSpeed" fill="#000" x="105.17241379310346" y="65.51724137931035"  width="8.03103448275862" height="8.03103448275862"></rect><rect shape-rendering="optimizeSpeed" fill="#000" x="128.9655172413793" y="65.51724137931035"  width="8.03103448275862" height="8.03103448275862"></rect><rect shape-rendering="optimizeSpeed" fill="#000" x="144.82758620689657" y="65.51724137931035"  width="8.03103448275862" height="8.03103448275862"></rect><rect shape-rendering="optimizeSpeed" fill="#000" x="152.75862068965517" y="65.51724137931035"  width="8.03103448275862" height="8.03103448275862"></rect><rect shape-rendering="optimizeSpeed" fill="#000" x="168.6206896551724" y="65.51724137931035"  width="8.03103448275862" height="8.03103448275862"></rect><rect shape-rendering="optimizeSpeed" fill="#000" x="10" y="73.44827586206897"  width="8.03103448275862" height="8.03103448275862"></rect><rect shape-rendering="optimizeSpeed" fill="#000" x="17.93103448275862" y="73.44827586206897"  width="8.03103448275862" height="8.03103448275862"></rect><rect shape-rendering="optimizeSpeed" fill="#000" x="33.793103448275865" y="73.44827586206897"  width="8.03103448275862" height="8.03103448275862"></rect><rect shape-rendering="optimizeSpeed" fill="#000" x="57.58620689655173" y="73.44827586206897"  width="8.03103448275862" height="8.03103448275862"></rect><rect shape-rendering="optimizeSpeed" fill="#000" x="65.51724137931035" y="73.44827586206897"  width="8.03103448275862" height="8.03103448275862"></rect><rect shape-rendering="optimizeSpeed" fill="#000" x="89.3103448275862" y="73.44827586206897"  width="8.03103448275862" height="8.03103448275862"></rect><rect shape-rendering="optimizeSpeed" fill="#000" x="113.10344827586208" y="73.44827586206897"  width="8.03103448275862" height="8.03103448275862"></rect><rect shape-rendering="optimizeSpeed" fill="#000" x="152.75862068965517" y="73.44827586206897"  width="8.03103448275862" height="8.03103448275862"></rect><rect shape-rendering="optimizeSpeed" fill="#000" x="184.48275862068965" y="73.44827586206897"  width="8.03103448275862" height="8.03103448275862"></rect><rect shape-rendering="optimizeSpeed" fill="#000" x="192.41379310344828" y="73.44827586206897"  width="8.03103448275862" height="8.03103448275862"></rect><rect shape-rendering="optimizeSpeed" fill="#000" x="200.34482758620692" y="73.44827586206897"  width="8.03103448275862" height="8.03103448275862"></rect><rect shape-rendering="optimizeSpeed" fill="#000" x="216.20689655172416" y="73.44827586206897"  width="8.03103448275862" height="8.03103448275862"></rect><rect shape-rendering="optimizeSpeed" fill="#000" x="224.13793103448276" y="73.44827586206897"  width="8.03103448275862" height="8.03103448275862"></rect><rect shape-rendering="optimizeSpeed" fill="#000" x="10" y="81.37931034482759"  width="8.03103448275862" height="8.03103448275862"></rect><rect shape-rendering="optimizeSpeed" fill="#000" x="17.93103448275862" y="81.37931034482759"  width="8.03103448275862" height="8.03103448275862"></rect><rect shape-rendering="optimizeSpeed" fill="#000" x="33.793103448275865" y="81.37931034482759"  width="8.03103448275862" height="8.03103448275862"></rect><rect shape-rendering="optimizeSpeed" fill="#000" x="41.724137931034484" y="81.37931034482759"  width="8.03103448275862" height="8.03103448275862"></rect><rect shape-rendering="optimizeSpeed" fill="#000" x="49.6551724137931" y="81.37931034482759"  width="8.03103448275862" height="8.03103448275862"></rect><rect shape-rendering="optimizeSpeed" fill="#000" x="65.51724137931035" y="81.37931034482759"  width="8.03103448275862" height="8.03103448275862"></rect><rect shape-rendering="optimizeSpeed" fill="#000" x="89.3103448275862" y="81.37931034482759"  width="8.03103448275862" height="8.03103448275862"></rect><rect shape-rendering="optimizeSpeed" fill="#000" x="97.24137931034483" y="81.37931034482759"  width="8.03103448275862" height="8.03103448275862"></rect><rect shape-rendering="optimizeSpeed" fill="#000" x="121.0344827586207" y="81.37931034482759"  width="8.03103448275862" height="8.03103448275862"></rect><rect shape-rendering="optimizeSpeed" fill="#000" x="144.82758620689657" y="81.37931034482759"  width="8.03103448275862" height="8.03103448275862"></rect><rect shape-rendering="optimizeSpeed" fill="#000" x="152.75862068965517" y="81.37931034482759"  width="8.03103448275862" height="8.03103448275862"></rect><rect shape-rendering="optimizeSpeed" fill="#000" x="160.6896551724138" y="81.37931034482759"  width="8.03103448275862" height="8.03103448275862"></rect><rect shape-rendering="optimizeSpeed" fill="#000" x="168.6206896551724" y="81.37931034482759"  width="8.03103448275862" height="8.03103448275862"></rect><rect shape-rendering="optimizeSpeed" fill="#000" x="184.48275862068965" y="81.37931034482759"  width="8.03103448275862" height="8.03103448275862"></rect><rect shape-rendering="optimizeSpeed" fill="#000" x="192.41379310344828" y="81.37931034482759"  width="8.03103448275862" height="8.03103448275862"></rect><rect shape-rendering="optimizeSpeed" fill="#000" x="232.0689655172414" y="81.37931034482759"  width="8.03103448275862" height="8.03103448275862"></rect><rect shape-rendering="optimizeSpeed" fill="#000" x="17.93103448275862" y="89.3103448275862"  width="8.03103448275862" height="8.03103448275862"></rect><rect shape-rendering="optimizeSpeed" fill="#000" x="25.862068965517242" y="89.3103448275862"  width="8.03103448275862" height="8.03103448275862"></rect><rect shape-rendering="optimizeSpeed" fill="#000" x="33.793103448275865" y="89.3103448275862"  width="8.03103448275862" height="8.03103448275862"></rect><rect shape-rendering="optimizeSpeed" fill="#000" x="41.724137931034484" y="89.3103448275862"  width="8.03103448275862" height="8.03103448275862"></rect><rect shape-rendering="optimizeSpeed" fill="#000" x="57.58620689655173" y="89.3103448275862"  width="8.03103448275862" height="8.03103448275862"></rect><rect shape-rendering="optimizeSpeed" fill="#000" x="81.37931034482759" y="89.3103448275862"  width="8.03103448275862" height="8.03103448275862"></rect><rect shape-rendering="optimizeSpeed" fill="#000" x="89.3103448275862" y="89.3103448275862"  width="8.03103448275862" height="8.03103448275862"></rect><rect shape-rendering="optimizeSpeed" fill="#000" x="113.10344827586208" y="89.3103448275862"  width="8.03103448275862" height="8.03103448275862"></rect><rect shape-rendering="optimizeSpeed" fill="#000" x="121.0344827586207" y="89.3103448275862"  width="8.03103448275862" height="8.03103448275862"></rect><rect shape-rendering="optimizeSpeed" fill="#000" x="152.75862068965517" y="89.3103448275862"  width="8.03103448275862" height="8.03103448275862"></rect><rect shape-rendering="optimizeSpeed" fill="#000" x="160.6896551724138" y="89.3103448275862"  width="8.03103448275862" height="8.03103448275862"></rect><rect shape-rendering="optimizeSpeed" fill="#000" x="168.6206896551724" y="89.3103448275862"  width="8.03103448275862" height="8.03103448275862"></rect><rect shape-rendering="optimizeSpeed" fill="#000" x="176.55172413793105" y="89.3103448275862"  width="8.03103448275862" height="8.03103448275862"></rect><rect shape-rendering="optimizeSpeed" fill="#000" x="17.93103448275862" y="97.24137931034483"  width="8.03103448275862" height="8.03103448275862"></rect><rect shape-rendering="optimizeSpeed" fill="#000" x="41.724137931034484" y="97.24137931034483"  width="8.03103448275862" height="8.03103448275862"></rect><rect shape-rendering="optimizeSpeed" fill="#000" x="113.10344827586208" y="97.24137931034483"  width="8.03103448275862" height="8.03103448275862"></rect><rect shape-rendering="optimizeSpeed" fill="#000" x="121.0344827586207" y="97.24137931034483"  width="8.03103448275862" height="8.03103448275862"></rect><rect shape-rendering="optimizeSpeed" fill="#000" x="128.9655172413793" y="97.24137931034483"  width="8.03103448275862" height="8.03103448275862"></rect><rect shape-rendering="optimizeSpeed" fill="#000" x="152.75862068965517" y="97.24137931034483"  width="8.03103448275862" height="8.03103448275862"></rect><rect shape-rendering="optimizeSpeed" fill="#000" x="184.48275862068965" y="97.24137931034483"  width="8.03103448275862" height="8.03103448275862"></rect><rect shape-rendering="optimizeSpeed" fill="#000" x="192.41379310344828" y="97.24137931034483"  width="8.03103448275862" height="8.03103448275862"></rect><rect shape-rendering="optimizeSpeed" fill="#000" x="216.20689655172416" y="97.24137931034483"  width="8.03103448275862" height="8.03103448275862"></rect><rect shape-rendering="optimizeSpeed" fill="#000" x="224.13793103448276" y="97.24137931034483"  width="8.03103448275862" height="8.03103448275862"></rect><rect shape-rendering="optimizeSpeed" fill="#000" x="10" y="105.17241379310346"  width="8.03103448275862" height="8.03103448275862"></rect><rect shape-rendering="optimizeSpeed" fill="#000" x="17.93103448275862" y="105.17241379310346"  width="8.03103448275862" height="8.03103448275862"></rect><rect shape-rendering="optimizeSpeed" fill="#000" x="25.862068965517242" y="105.17241379310346"  width="8.03103448275862" height="8.03103448275862"></rect><rect shape-rendering="optimizeSpeed" fill="#000" x="41.724137931034484" y="105.17241379310346"  width="8.03103448275862" height="8.03103448275862"></rect><rect shape-rendering="optimizeSpeed" fill="#000" x="49.6551724137931" y="105.17241379310346"  width="8.03103448275862" height="8.03103448275862"></rect><rect shape-rendering="optimizeSpeed" fill="#000" x="57.58620689655173" y="105.17241379310346"  width="8.03103448275862" height="8.03103448275862"></rect><rect shape-rendering="optimizeSpeed" fill="#000" x="65.51724137931035" y="105.17241379310346"  width="8.03103448275862" height="8.03103448275862"></rect><rect shape-rendering="optimizeSpeed" fill="#000" x="105.17241379310346" y="105.17241379310346"  width="8.03103448275862" height="8.03103448275862"></rect><rect shape-rendering="optimizeSpeed" fill="#000" x="113.10344827586208" y="105.17241379310346"  width="8.03103448275862" height="8.03103448275862"></rect><rect shape-rendering="optimizeSpeed" fill="#000" x="121.0344827586207" y="105.17241379310346"  width="8.03103448275862" height="8.03103448275862"></rect><rect shape-rendering="optimizeSpeed" fill="#000" x="144.82758620689657" y="105.17241379310346"  width="8.03103448275862" height="8.03103448275862"></rect><rect shape-rendering="optimizeSpeed" fill="#000" x="152.75862068965517" y="105.17241379310346"  width="8.03103448275862" height="8.03103448275862"></rect><rect shape-rendering="optimizeSpeed" fill="#000" x="184.48275862068965" y="105.17241379310346"  width="8.03103448275862" height="8.03103448275862"></rect><rect shape-rendering="optimizeSpeed" fill="#000" x="200.34482758620692" y="105.17241379310346"  width="8.03103448275862" height="8.03103448275862"></rect><rect shape-rendering="optimizeSpeed" fill="#000" x="216.20689655172416" y="105.17241379310346"  width="8.03103448275862" height="8.03103448275862"></rect><rect shape-rendering="optimizeSpeed" fill="#000" x="232.0689655172414" y="105.17241379310346"  width="8.03103448275862" height="8.03103448275862"></rect><rect shape-rendering="optimizeSpeed" fill="#000" x="41.724137931034484" y="113.10344827586208"  width="8.03103448275862" height="8.03103448275862"></rect><rect shape-rendering="optimizeSpeed" fill="#000" x="65.51724137931035" y="113.10344827586208"  width="8.03103448275862" height="8.03103448275862"></rect><rect shape-rendering="optimizeSpeed" fill="#000" x="73.44827586206897" y="113.10344827586208"  width="8.03103448275862" height="8.03103448275862"></rect><rect shape-rendering="optimizeSpeed" fill="#000" x="81.37931034482759" y="113.10344827586208"  width="8.03103448275862" height="8.03103448275862"></rect><rect shape-rendering="optimizeSpeed" fill="#000" x="89.3103448275862" y="113.10344827586208"  width="8.03103448275862" height="8.03103448275862"></rect><rect shape-rendering="optimizeSpeed" fill="#000" x="97.24137931034483" y="113.10344827586208"  width="8.03103448275862" height="8.03103448275862"></rect><rect shape-rendering="optimizeSpeed" fill="#000" x="105.17241379310346" y="113.10344827586208"  width="8.03103448275862" height="8.03103448275862"></rect><rect shape-rendering="optimizeSpeed" fill="#000" x="121.0344827586207" y="113.10344827586208"  width="8.03103448275862" height="8.03103448275862"></rect><rect shape-rendering="optimizeSpeed" fill="#000" x="136.89655172413794" y="113.10344827586208"  width="8.03103448275862" height="8.03103448275862"></rect><rect shape-rendering="optimizeSpeed" fill="#000" x="152.75862068965517" y="113.10344827586208"  width="8.03103448275862" height="8.03103448275862"></rect><rect shape-rendering="optimizeSpeed" fill="#000" x="160.6896551724138" y="113.10344827586208"  width="8.03103448275862" height="8.03103448275862"></rect><rect shape-rendering="optimizeSpeed" fill="#000" x="33.793103448275865" y="121.0344827586207"  width="8.03103448275862" height="8.03103448275862"></rect><rect shape-rendering="optimizeSpeed" fill="#000" x="41.724137931034484" y="121.0344827586207"  width="8.03103448275862" height="8.03103448275862"></rect><rect shape-rendering="optimizeSpeed" fill="#000" x="57.58620689655173" y="121.0344827586207"  width="8.03103448275862" height="8.03103448275862"></rect><rect shape-rendering="optimizeSpeed" fill="#000" x="73.44827586206897" y="121.0344827586207"  width="8.03103448275862" height="8.03103448275862"></rect><rect shape-rendering="optimizeSpeed" fill="#000" x="105.17241379310346" y="121.0344827586207"  width="8.03103448275862" height="8.03103448275862"></rect><rect shape-rendering="optimizeSpeed" fill="#000" x="144.82758620689657" y="121.0344827586207"  width="8.03103448275862" height="8.03103448275862"></rect><rect shape-rendering="optimizeSpeed" fill="#000" x="152.75862068965517" y="121.0344827586207"  width="8.03103448275862" height="8.03103448275862"></rect><rect shape-rendering="optimizeSpeed" fill="#000" x="184.48275862068965" y="121.0344827586207"  width="8.03103448275862" height="8.03103448275862"></rect><rect shape-rendering="optimizeSpeed" fill="#000" x="192.41379310344828" y="121.0344827586207"  width="8.03103448275862" height="8.03103448275862"></rect><rect shape-rendering="optimizeSpeed" fill="#000" x="208.27586206896552" y="121.0344827586207"  width="8.03103448275862" height="8.03103448275862"></rect><rect shape-rendering="optimizeSpeed" fill="#000" x="232.0689655172414" y="121.0344827586207"  width="8.03103448275862" height="8.03103448275862"></rect><rect shape-rendering="optimizeSpeed" fill="#000" x="41.724137931034484" y="128.9655172413793"  width="8.03103448275862" height="8.03103448275862"></rect><rect shape-rendering="optimizeSpeed" fill="#000" x="65.51724137931035" y="128.9655172413793"  width="8.03103448275862" height="8.03103448275862"></rect><rect shape-rendering="optimizeSpeed" fill="#000" x="73.44827586206897" y="128.9655172413793"  width="8.03103448275862" height="8.03103448275862"></rect><rect shape-rendering="optimizeSpeed" fill="#000" x="89.3103448275862" y="128.9655172413793"  width="8.03103448275862" height="8.03103448275862"></rect><rect shape-rendering="optimizeSpeed" fill="#000" x="105.17241379310346" y="128.9655172413793"  width="8.03103448275862" height="8.03103448275862"></rect><rect shape-rendering="optimizeSpeed" fill="#000" x="113.10344827586208" y="128.9655172413793"  width="8.03103448275862" height="8.03103448275862"></rect><rect shape-rendering="optimizeSpeed" fill="#000" x="128.9655172413793" y="128.9655172413793"  width="8.03103448275862" height="8.03103448275862"></rect><rect shape-rendering="optimizeSpeed" fill="#000" x="136.89655172413794" y="128.9655172413793"  width="8.03103448275862" height="8.03103448275862"></rect><rect shape-rendering="optimizeSpeed" fill="#000" x="144.82758620689657" y="128.9655172413793"  width="8.03103448275862" height="8.03103448275862"></rect><rect shape-rendering="optimizeSpeed" fill="#000" x="152.75862068965517" y="128.9655172413793"  width="8.03103448275862" height="8.03103448275862"></rect><rect shape-rendering="optimizeSpeed" fill="#000" x="168.6206896551724" y="128.9655172413793"  width="8.03103448275862" height="8.03103448275862"></rect><rect shape-rendering="optimizeSpeed" fill="#000" x="176.55172413793105" y="128.9655172413793"  width="8.03103448275862" height="8.03103448275862"></rect><rect shape-rendering="optimizeSpeed" fill="#000" x="224.13793103448276" y="128.9655172413793"  width="8.03103448275862" height="8.03103448275862"></rect><rect shape-rendering="optimizeSpeed" fill="#000" x="17.93103448275862" y="136.89655172413794"  width="8.03103448275862" height="8.03103448275862"></rect><rect shape-rendering="optimizeSpeed" fill="#000" x="25.862068965517242" y="136.89655172413794"  width="8.03103448275862" height="8.03103448275862"></rect><rect shape-rendering="optimizeSpeed" fill="#000" x="33.793103448275865" y="136.89655172413794"  width="8.03103448275862" height="8.03103448275862"></rect><rect shape-rendering="optimizeSpeed" fill="#000" x="41.724137931034484" y="136.89655172413794"  width="8.03103448275862" height="8.03103448275862"></rect><rect shape-rendering="optimizeSpeed" fill="#000" x="49.6551724137931" y="136.89655172413794"  width="8.03103448275862" height="8.03103448275862"></rect><rect shape-rendering="optimizeSpeed" fill="#000" x="57.58620689655173" y="136.89655172413794"  width="8.03103448275862" height="8.03103448275862"></rect><rect shape-rendering="optimizeSpeed" fill="#000" x="73.44827586206897" y="136.89655172413794"  width="8.03103448275862" height="8.03103448275862"></rect><rect shape-rendering="optimizeSpeed" fill="#000" x="89.3103448275862" y="136.89655172413794"  width="8.03103448275862" height="8.03103448275862"></rect><rect shape-rendering="optimizeSpeed" fill="#000" x="97.24137931034483" y="136.89655172413794"  width="8.03103448275862" height="8.03103448275862"></rect><rect shape-rendering="optimizeSpeed" fill="#000" x="113.10344827586208" y="136.89655172413794"  width="8.03103448275862" height="8.03103448275862"></rect><rect shape-rendering="optimizeSpeed" fill="#000" x="136.89655172413794" y="136.89655172413794"  width="8.03103448275862" height="8.03103448275862"></rect><rect shape-rendering="optimizeSpeed" fill="#000" x="144.82758620689657" y="136.89655172413794"  width="8.03103448275862" height="8.03103448275862"></rect><rect shape-rendering="optimizeSpeed" fill="#000" x="160.6896551724138" y="136.89655172413794"  width="8.03103448275862" height="8.03103448275862"></rect><rect shape-rendering="optimizeSpeed" fill="#000" x="192.41379310344828" y="136.89655172413794"  width="8.03103448275862" height="8.03103448275862"></rect><rect shape-rendering="optimizeSpeed" fill="#000" x="208.27586206896552" y="136.89655172413794"  width="8.03103448275862" height="8.03103448275862"></rect><rect shape-rendering="optimizeSpeed" fill="#000" x="232.0689655172414" y="136.89655172413794"  width="8.03103448275862" height="8.03103448275862"></rect><rect shape-rendering="optimizeSpeed" fill="#000" x="17.93103448275862" y="144.82758620689657"  width="8.03103448275862" height="8.03103448275862"></rect><rect shape-rendering="optimizeSpeed" fill="#000" x="33.793103448275865" y="144.82758620689657"  width="8.03103448275862" height="8.03103448275862"></rect><rect shape-rendering="optimizeSpeed" fill="#000" x="65.51724137931035" y="144.82758620689657"  width="8.03103448275862" height="8.03103448275862"></rect><rect shape-rendering="optimizeSpeed" fill="#000" x="113.10344827586208" y="144.82758620689657"  width="8.03103448275862" height="8.03103448275862"></rect><rect shape-rendering="optimizeSpeed" fill="#000" x="121.0344827586207" y="144.82758620689657"  width="8.03103448275862" height="8.03103448275862"></rect><rect shape-rendering="optimizeSpeed" fill="#000" x="168.6206896551724" y="144.82758620689657"  width="8.03103448275862" height="8.03103448275862"></rect><rect shape-rendering="optimizeSpeed" fill="#000" x="184.48275862068965" y="144.82758620689657"  width="8.03103448275862" height="8.03103448275862"></rect><rect shape-rendering="optimizeSpeed" fill="#000" x="208.27586206896552" y="144.82758620689657"  width="8.03103448275862" height="8.03103448275862"></rect><rect shape-rendering="optimizeSpeed" fill="#000" x="216.20689655172416" y="144.82758620689657"  width="8.03103448275862" height="8.03103448275862"></rect><rect shape-rendering="optimizeSpeed" fill="#000" x="232.0689655172414" y="144.82758620689657"  width="8.03103448275862" height="8.03103448275862"></rect><rect shape-rendering="optimizeSpeed" fill="#000" x="10" y="152.75862068965517"  width="8.03103448275862" height="8.03103448275862"></rect><rect shape-rendering="optimizeSpeed" fill="#000" x="25.862068965517242" y="152.75862068965517"  width="8.03103448275862" height="8.03103448275862"></rect><rect shape-rendering="optimizeSpeed" fill="#000" x="57.58620689655173" y="152.75862068965517"  width="8.03103448275862" height="8.03103448275862"></rect><rect shape-rendering="optimizeSpeed" fill="#000" x="73.44827586206897" y="152.75862068965517"  width="8.03103448275862" height="8.03103448275862"></rect><rect shape-rendering="optimizeSpeed" fill="#000" x="81.37931034482759" y="152.75862068965517"  width="8.03103448275862" height="8.03103448275862"></rect><rect shape-rendering="optimizeSpeed" fill="#000" x="89.3103448275862" y="152.75862068965517"  width="8.03103448275862" height="8.03103448275862"></rect><rect shape-rendering="optimizeSpeed" fill="#000" x="136.89655172413794" y="152.75862068965517"  width="8.03103448275862" height="8.03103448275862"></rect><rect shape-rendering="optimizeSpeed" fill="#000" x="144.82758620689657" y="152.75862068965517"  width="8.03103448275862" height="8.03103448275862"></rect><rect shape-rendering="optimizeSpeed" fill="#000" x="152.75862068965517" y="152.75862068965517"  width="8.03103448275862" height="8.03103448275862"></rect><rect shape-rendering="optimizeSpeed" fill="#000" x="168.6206896551724" y="152.75862068965517"  width="8.03103448275862" height="8.03103448275862"></rect><rect shape-rendering="optimizeSpeed" fill="#000" x="224.13793103448276" y="152.75862068965517"  width="8.03103448275862" height="8.03103448275862"></rect><rect shape-rendering="optimizeSpeed" fill="#000" x="232.0689655172414" y="152.75862068965517"  width="8.03103448275862" height="8.03103448275862"></rect><rect shape-rendering="optimizeSpeed" fill="#000" x="49.6551724137931" y="160.6896551724138"  width="8.03103448275862" height="8.03103448275862"></rect><rect shape-rendering="optimizeSpeed" fill="#000" x="65.51724137931035" y="160.6896551724138"  width="8.03103448275862" height="8.03103448275862"></rect><rect shape-rendering="optimizeSpeed" fill="#000" x="73.44827586206897" y="160.6896551724138"  width="8.03103448275862" height="8.03103448275862"></rect><rect shape-rendering="optimizeSpeed" fill="#000" x="81.37931034482759" y="160.6896551724138"  width="8.03103448275862" height="8.03103448275862"></rect><rect shape-rendering="optimizeSpeed" fill="#000" x="89.3103448275862" y="160.6896551724138"  width="8.03103448275862" height="8.03103448275862"></rect><rect shape-rendering="optimizeSpeed" fill="#000" x="97.24137931034483" y="160.6896551724138"  width="8.03103448275862" height="8.03103448275862"></rect><rect shape-rendering="optimizeSpeed" fill="#000" x="128.9655172413793" y="160.6896551724138"  width="8.03103448275862" height="8.03103448275862"></rect><rect shape-rendering="optimizeSpeed" fill="#000" x="136.89655172413794" y="160.6896551724138"  width="8.03103448275862" height="8.03103448275862"></rect><rect shape-rendering="optimizeSpeed" fill="#000" x="144.82758620689657" y="160.6896551724138"  width="8.03103448275862" height="8.03103448275862"></rect><rect shape-rendering="optimizeSpeed" fill="#000" x="160.6896551724138" y="160.6896551724138"  width="8.03103448275862" height="8.03103448275862"></rect><rect shape-rendering="optimizeSpeed" fill="#000" x="168.6206896551724" y="160.6896551724138"  width="8.03103448275862" height="8.03103448275862"></rect><rect shape-rendering="optimizeSpeed" fill="#000" x="184.48275862068965" y="160.6896551724138"  width="8.03103448275862" height="8.03103448275862"></rect><rect shape-rendering="optimizeSpeed" fill="#000" x="192.41379310344828" y="160.6896551724138"  width="8.03103448275862" height="8.03103448275862"></rect><rect shape-rendering="optimizeSpeed" fill="#000" x="224.13793103448276" y="160.6896551724138"  width="8.03103448275862" height="8.03103448275862"></rect><rect shape-rendering="optimizeSpeed" fill="#000" x="232.0689655172414" y="160.6896551724138"  width="8.03103448275862" height="8.03103448275862"></rect><rect shape-rendering="optimizeSpeed" fill="#000" x="10" y="168.6206896551724"  width="8.03103448275862" height="8.03103448275862"></rect><rect shape-rendering="optimizeSpeed" fill="#000" x="33.793103448275865" y="168.6206896551724"  width="8.03103448275862" height="8.03103448275862"></rect><rect shape-rendering="optimizeSpeed" fill="#000" x="49.6551724137931" y="168.6206896551724"  width="8.03103448275862" height="8.03103448275862"></rect><rect shape-rendering="optimizeSpeed" fill="#000" x="57.58620689655173" y="168.6206896551724"  width="8.03103448275862" height="8.03103448275862"></rect><rect shape-rendering="optimizeSpeed" fill="#000" x="65.51724137931035" y="168.6206896551724"  width="8.03103448275862" height="8.03103448275862"></rect><rect shape-rendering="optimizeSpeed" fill="#000" x="73.44827586206897" y="168.6206896551724"  width="8.03103448275862" height="8.03103448275862"></rect><rect shape-rendering="optimizeSpeed" fill="#000" x="89.3103448275862" y="168.6206896551724"  width="8.03103448275862" height="8.03103448275862"></rect><rect shape-rendering="optimizeSpeed" fill="#000" x="97.24137931034483" y="168.6206896551724"  width="8.03103448275862" height="8.03103448275862"></rect><rect shape-rendering="optimizeSpeed" fill="#000" x="105.17241379310346" y="168.6206896551724"  width="8.03103448275862" height="8.03103448275862"></rect><rect shape-rendering="optimizeSpeed" fill="#000" x="113.10344827586208" y="168.6206896551724"  width="8.03103448275862" height="8.03103448275862"></rect><rect shape-rendering="optimizeSpeed" fill="#000" x="152.75862068965517" y="168.6206896551724"  width="8.03103448275862" height="8.03103448275862"></rect><rect shape-rendering="optimizeSpeed" fill="#000" x="168.6206896551724" y="168.6206896551724"  width="8.03103448275862" height="8.03103448275862"></rect><rect shape-rendering="optimizeSpeed" fill="#000" x="176.55172413793105" y="168.6206896551724"  width="8.03103448275862" height="8.03103448275862"></rect><rect shape-rendering="optimizeSpeed" fill="#000" x="184.48275862068965" y="168.6206896551724"  width="8.03103448275862" height="8.03103448275862"></rect><rect shape-rendering="optimizeSpeed" fill="#000" x="192.41379310344828" y="168.6206896551724"  width="8.03103448275862" height="8.03103448275862"></rect><rect shape-rendering="optimizeSpeed" fill="#000" x="200.34482758620692" y="168.6206896551724"  width="8.03103448275862" height="8.03103448275862"></rect><rect shape-rendering="optimizeSpeed" fill="#000" x="208.27586206896552" y="168.6206896551724"  width="8.03103448275862" height="8.03103448275862"></rect><rect shape-rendering="optimizeSpeed" fill="#000" x="216.20689655172416" y="168.6206896551724"  width="8.03103448275862" height="8.03103448275862"></rect><rect shape-rendering="optimizeSpeed" fill="#000" x="232.0689655172414" y="168.6206896551724"  width="8.03103448275862" height="8.03103448275862"></rect><rect shape-rendering="optimizeSpeed" fill="#000" x="73.44827586206897" y="176.55172413793105"  width="8.03103448275862" height="8.03103448275862"></rect><rect shape-rendering="optimizeSpeed" fill="#000" x="81.37931034482759" y="176.55172413793105"  width="8.03103448275862" height="8.03103448275862"></rect><rect shape-rendering="optimizeSpeed" fill="#000" x="89.3103448275862" y="176.55172413793105"  width="8.03103448275862" height="8.03103448275862"></rect><rect shape-rendering="optimizeSpeed" fill="#000" x="97.24137931034483" y="176.55172413793105"  width="8.03103448275862" height="8.03103448275862"></rect><rect shape-rendering="optimizeSpeed" fill="#000" x="105.17241379310346" y="176.55172413793105"  width="8.03103448275862" height="8.03103448275862"></rect><rect shape-rendering="optimizeSpeed" fill="#000" x="113.10344827586208" y="176.55172413793105"  width="8.03103448275862" height="8.03103448275862"></rect><rect shape-rendering="optimizeSpeed" fill="#000" x="121.0344827586207" y="176.55172413793105"  width="8.03103448275862" height="8.03103448275862"></rect><rect shape-rendering="optimizeSpeed" fill="#000" x="144.82758620689657" y="176.55172413793105"  width="8.03103448275862" height="8.03103448275862"></rect><rect shape-rendering="optimizeSpeed" fill="#000" x="152.75862068965517" y="176.55172413793105"  width="8.03103448275862" height="8.03103448275862"></rect><rect shape-rendering="optimizeSpeed" fill="#000" x="160.6896551724138" y="176.55172413793105"  width="8.03103448275862" height="8.03103448275862"></rect><rect shape-rendering="optimizeSpeed" fill="#000" x="168.6206896551724" y="176.55172413793105"  width="8.03103448275862" height="8.03103448275862"></rect><rect shape-rendering="optimizeSpeed" fill="#000" x="200.34482758620692" y="176.55172413793105"  width="8.03103448275862" height="8.03103448275862"></rect><rect shape-rendering="optimizeSpeed" fill="#000" x="208.27586206896552" y="176.55172413793105"  width="8.03103448275862" height="8.03103448275862"></rect><rect shape-rendering="optimizeSpeed" fill="#000" x="232.0689655172414" y="176.55172413793105"  width="8.03103448275862" height="8.03103448275862"></rect><rect shape-rendering="optimizeSpeed" fill="#000" x="10" y="184.48275862068965"  width="8.03103448275862" height="8.03103448275862"></rect><rect shape-rendering="optimizeSpeed" fill="#000" x="17.93103448275862" y="184.48275862068965"  width="8.03103448275862" height="8.03103448275862"></rect><rect shape-rendering="optimizeSpeed" fill="#000" x="25.862068965517242" y="184.48275862068965"  width="8.03103448275862" height="8.03103448275862"></rect><rect shape-rendering="optimizeSpeed" fill="#000" x="33.793103448275865" y="184.48275862068965"  width="8.03103448275862" height="8.03103448275862"></rect><rect shape-rendering="optimizeSpeed" fill="#000" x="41.724137931034484" y="184.48275862068965"  width="8.03103448275862" height="8.03103448275862"></rect><rect shape-rendering="optimizeSpeed" fill="#000" x="49.6551724137931" y="184.48275862068965"  width="8.03103448275862" height="8.03103448275862"></rect><rect shape-rendering="optimizeSpeed" fill="#000" x="57.58620689655173" y="184.48275862068965"  width="8.03103448275862" height="8.03103448275862"></rect><rect shape-rendering="optimizeSpeed" fill="#000" x="73.44827586206897" y="184.48275862068965"  width="8.03103448275862" height="8.03103448275862"></rect><rect shape-rendering="optimizeSpeed" fill="#000" x="81.37931034482759" y="184.48275862068965"  width="8.03103448275862" height="8.03103448275862"></rect><rect shape-rendering="optimizeSpeed" fill="#000" x="89.3103448275862" y="184.48275862068965"  width="8.03103448275862" height="8.03103448275862"></rect><rect shape-rendering="optimizeSpeed" fill="#000" x="97.24137931034483" y="184.48275862068965"  width="8.03103448275862" height="8.03103448275862"></rect><rect shape-rendering="optimizeSpeed" fill="#000" x="105.17241379310346" y="184.48275862068965"  width="8.03103448275862" height="8.03103448275862"></rect><rect shape-rendering="optimizeSpeed" fill="#000" x="121.0344827586207" y="184.48275862068965"  width="8.03103448275862" height="8.03103448275862"></rect><rect shape-rendering="optimizeSpeed" fill="#000" x="136.89655172413794" y="184.48275862068965"  width="8.03103448275862" height="8.03103448275862"></rect><rect shape-rendering="optimizeSpeed" fill="#000" x="168.6206896551724" y="184.48275862068965"  width="8.03103448275862" height="8.03103448275862"></rect><rect shape-rendering="optimizeSpeed" fill="#000" x="184.48275862068965" y="184.48275862068965"  width="8.03103448275862" height="8.03103448275862"></rect><rect shape-rendering="optimizeSpeed" fill="#000" x="200.34482758620692" y="184.48275862068965"  width="8.03103448275862" height="8.03103448275862"></rect><rect shape-rendering="optimizeSpeed" fill="#000" x="208.27586206896552" y="184.48275862068965"  width="8.03103448275862" height="8.03103448275862"></rect><rect shape-rendering="optimizeSpeed" fill="#000" x="10" y="192.41379310344828"  width="8.03103448275862" height="8.03103448275862"></rect><rect shape-rendering="optimizeSpeed" fill="#000" x="57.58620689655173" y="192.41379310344828"  width="8.03103448275862" height="8.03103448275862"></rect><rect shape-rendering="optimizeSpeed" fill="#000" x="81.37931034482759" y="192.41379310344828"  width="8.03103448275862" height="8.03103448275862"></rect><rect shape-rendering="optimizeSpeed" fill="#000" x="97.24137931034483" y="192.41379310344828"  width="8.03103448275862" height="8.03103448275862"></rect><rect shape-rendering="optimizeSpeed" fill="#000" x="105.17241379310346" y="192.41379310344828"  width="8.03103448275862" height="8.03103448275862"></rect><rect shape-rendering="optimizeSpeed" fill="#000" x="113.10344827586208" y="192.41379310344828"  width="8.03103448275862" height="8.03103448275862"></rect><rect shape-rendering="optimizeSpeed" fill="#000" x="168.6206896551724" y="192.41379310344828"  width="8.03103448275862" height="8.03103448275862"></rect><rect shape-rendering="optimizeSpeed" fill="#000" x="200.34482758620692" y="192.41379310344828"  width="8.03103448275862" height="8.03103448275862"></rect><rect shape-rendering="optimizeSpeed" fill="#000" x="208.27586206896552" y="192.41379310344828"  width="8.03103448275862" height="8.03103448275862"></rect><rect shape-rendering="optimizeSpeed" fill="#000" x="216.20689655172416" y="192.41379310344828"  width="8.03103448275862" height="8.03103448275862"></rect><rect shape-rendering="optimizeSpeed" fill="#000" x="224.13793103448276" y="192.41379310344828"  width="8.03103448275862" height="8.03103448275862"></rect><rect shape-rendering="optimizeSpeed" fill="#000" x="232.0689655172414" y="192.41379310344828"  width="8.03103448275862" height="8.03103448275862"></rect><rect shape-rendering="optimizeSpeed" fill="#000" x="10" y="200.34482758620692"  width="8.03103448275862" height="8.03103448275862"></rect><rect shape-rendering="optimizeSpeed" fill="#000" x="25.862068965517242" y="200.34482758620692"  width="8.03103448275862" height="8.03103448275862"></rect><rect shape-rendering="optimizeSpeed" fill="#000" x="33.793103448275865" y="200.34482758620692"  width="8.03103448275862" height="8.03103448275862"></rect><rect shape-rendering="optimizeSpeed" fill="#000" x="41.724137931034484" y="200.34482758620692"  width="8.03103448275862" height="8.03103448275862"></rect><rect shape-rendering="optimizeSpeed" fill="#000" x="57.58620689655173" y="200.34482758620692"  width="8.03103448275862" height="8.03103448275862"></rect><rect shape-rendering="optimizeSpeed" fill="#000" x="81.37931034482759" y="200.34482758620692"  width="8.03103448275862" height="8.03103448275862"></rect><rect shape-rendering="optimizeSpeed" fill="#000" x="97.24137931034483" y="200.34482758620692"  width="8.03103448275862" height="8.03103448275862"></rect><rect shape-rendering="optimizeSpeed" fill="#000" x="121.0344827586207" y="200.34482758620692"  width="8.03103448275862" height="8.03103448275862"></rect><rect shape-rendering="optimizeSpeed" fill="#000" x="136.89655172413794" y="200.34482758620692"  width="8.03103448275862" height="8.03103448275862"></rect><rect shape-rendering="optimizeSpeed" fill="#000" x="144.82758620689657" y="200.34482758620692"  width="8.03103448275862" height="8.03103448275862"></rect><rect shape-rendering="optimizeSpeed" fill="#000" x="168.6206896551724" y="200.34482758620692"  width="8.03103448275862" height="8.03103448275862"></rect><rect shape-rendering="optimizeSpeed" fill="#000" x="176.55172413793105" y="200.34482758620692"  width="8.03103448275862" height="8.03103448275862"></rect><rect shape-rendering="optimizeSpeed" fill="#000" x="184.48275862068965" y="200.34482758620692"  width="8.03103448275862" height="8.03103448275862"></rect><rect shape-rendering="optimizeSpeed" fill="#000" x="192.41379310344828" y="200.34482758620692"  width="8.03103448275862" height="8.03103448275862"></rect><rect shape-rendering="optimizeSpeed" fill="#000" x="200.34482758620692" y="200.34482758620692"  width="8.03103448275862" height="8.03103448275862"></rect><rect shape-rendering="optimizeSpeed" fill="#000" x="208.27586206896552" y="200.34482758620692"  width="8.03103448275862" height="8.03103448275862"></rect><rect shape-rendering="optimizeSpeed" fill="#000" x="10" y="208.27586206896552"  width="8.03103448275862" height="8.03103448275862"></rect><rect shape-rendering="optimizeSpeed" fill="#000" x="25.862068965517242" y="208.27586206896552"  width="8.03103448275862" height="8.03103448275862"></rect><rect shape-rendering="optimizeSpeed" fill="#000" x="33.793103448275865" y="208.27586206896552"  width="8.03103448275862" height="8.03103448275862"></rect><rect shape-rendering="optimizeSpeed" fill="#000" x="41.724137931034484" y="208.27586206896552"  width="8.03103448275862" height="8.03103448275862"></rect><rect shape-rendering="optimizeSpeed" fill="#000" x="57.58620689655173" y="208.27586206896552"  width="8.03103448275862" height="8.03103448275862"></rect><rect shape-rendering="optimizeSpeed" fill="#000" x="73.44827586206897" y="208.27586206896552"  width="8.03103448275862" height="8.03103448275862"></rect><rect shape-rendering="optimizeSpeed" fill="#000" x="81.37931034482759" y="208.27586206896552"  width="8.03103448275862" height="8.03103448275862"></rect><rect shape-rendering="optimizeSpeed" fill="#000" x="97.24137931034483" y="208.27586206896552"  width="8.03103448275862" height="8.03103448275862"></rect><rect shape-rendering="optimizeSpeed" fill="#000" x="113.10344827586208" y="208.27586206896552"  width="8.03103448275862" height="8.03103448275862"></rect><rect shape-rendering="optimizeSpeed" fill="#000" x="144.82758620689657" y="208.27586206896552"  width="8.03103448275862" height="8.03103448275862"></rect><rect shape-rendering="optimizeSpeed" fill="#000" x="176.55172413793105" y="208.27586206896552"  width="8.03103448275862" height="8.03103448275862"></rect><rect shape-rendering="optimizeSpeed" fill="#000" x="184.48275862068965" y="208.27586206896552"  width="8.03103448275862" height="8.03103448275862"></rect><rect shape-rendering="optimizeSpeed" fill="#000" x="192.41379310344828" y="208.27586206896552"  width="8.03103448275862" height="8.03103448275862"></rect><rect shape-rendering="optimizeSpeed" fill="#000" x="208.27586206896552" y="208.27586206896552"  width="8.03103448275862" height="8.03103448275862"></rect><rect shape-rendering="optimizeSpeed" fill="#000" x="224.13793103448276" y="208.27586206896552"  width="8.03103448275862" height="8.03103448275862"></rect><rect shape-rendering="optimizeSpeed" fill="#000" x="10" y="216.20689655172416"  width="8.03103448275862" height="8.03103448275862"></rect><rect shape-rendering="optimizeSpeed" fill="#000" x="25.862068965517242" y="216.20689655172416"  width="8.03103448275862" height="8.03103448275862"></rect><rect shape-rendering="optimizeSpeed" fill="#000" x="33.793103448275865" y="216.20689655172416"  width="8.03103448275862" height="8.03103448275862"></rect><rect shape-rendering="optimizeSpeed" fill="#000" x="41.724137931034484" y="216.20689655172416"  width="8.03103448275862" height="8.03103448275862"></rect><rect shape-rendering="optimizeSpeed" fill="#000" x="57.58620689655173" y="216.20689655172416"  width="8.03103448275862" height="8.03103448275862"></rect><rect shape-rendering="optimizeSpeed" fill="#000" x="89.3103448275862" y="216.20689655172416"  width="8.03103448275862" height="8.03103448275862"></rect><rect shape-rendering="optimizeSpeed" fill="#000" x="97.24137931034483" y="216.20689655172416"  width="8.03103448275862" height="8.03103448275862"></rect><rect shape-rendering="optimizeSpeed" fill="#000" x="113.10344827586208" y="216.20689655172416"  width="8.03103448275862" height="8.03103448275862"></rect><rect shape-rendering="optimizeSpeed" fill="#000" x="121.0344827586207" y="216.20689655172416"  width="8.03103448275862" height="8.03103448275862"></rect><rect shape-rendering="optimizeSpeed" fill="#000" x="144.82758620689657" y="216.20689655172416"  width="8.03103448275862" height="8.03103448275862"></rect><rect shape-rendering="optimizeSpeed" fill="#000" x="152.75862068965517" y="216.20689655172416"  width="8.03103448275862" height="8.03103448275862"></rect><rect shape-rendering="optimizeSpeed" fill="#000" x="176.55172413793105" y="216.20689655172416"  width="8.03103448275862" height="8.03103448275862"></rect><rect shape-rendering="optimizeSpeed" fill="#000" x="200.34482758620692" y="216.20689655172416"  width="8.03103448275862" height="8.03103448275862"></rect><rect shape-rendering="optimizeSpeed" fill="#000" x="216.20689655172416" y="216.20689655172416"  width="8.03103448275862" height="8.03103448275862"></rect><rect shape-rendering="optimizeSpeed" fill="#000" x="232.0689655172414" y="216.20689655172416"  width="8.03103448275862" height="8.03103448275862"></rect><rect shape-rendering="optimizeSpeed" fill="#000" x="10" y="224.13793103448276"  width="8.03103448275862" height="8.03103448275862"></rect><rect shape-rendering="optimizeSpeed" fill="#000" x="57.58620689655173" y="224.13793103448276"  width="8.03103448275862" height="8.03103448275862"></rect><rect shape-rendering="optimizeSpeed" fill="#000" x="73.44827586206897" y="224.13793103448276"  width="8.03103448275862" height="8.03103448275862"></rect><rect shape-rendering="optimizeSpeed" fill="#000" x="97.24137931034483" y="224.13793103448276"  width="8.03103448275862" height="8.03103448275862"></rect><rect shape-rendering="optimizeSpeed" fill="#000" x="136.89655172413794" y="224.13793103448276"  width="8.03103448275862" height="8.03103448275862"></rect><rect shape-rendering="optimizeSpeed" fill="#000" x="144.82758620689657" y="224.13793103448276"  width="8.03103448275862" height="8.03103448275862"></rect><rect shape-rendering="optimizeSpeed" fill="#000" x="152.75862068965517" y="224.13793103448276"  width="8.03103448275862" height="8.03103448275862"></rect><rect shape-rendering="optimizeSpeed" fill="#000" x="168.6206896551724" y="224.13793103448276"  width="8.03103448275862" height="8.03103448275862"></rect><rect shape-rendering="optimizeSpeed" fill="#000" x="200.34482758620692" y="224.13793103448276"  width="8.03103448275862" height="8.03103448275862"></rect><rect shape-rendering="optimizeSpeed" fill="#000" x="208.27586206896552" y="224.13793103448276"  width="8.03103448275862" height="8.03103448275862"></rect><rect shape-rendering="optimizeSpeed" fill="#000" x="224.13793103448276" y="224.13793103448276"  width="8.03103448275862" height="8.03103448275862"></rect><rect shape-rendering="optimizeSpeed" fill="#000" x="10" y="232.0689655172414"  width="8.03103448275862" height="8.03103448275862"></rect><rect shape-rendering="optimizeSpeed" fill="#000" x="17.93103448275862" y="232.0689655172414"  width="8.03103448275862" height="8.03103448275862"></rect><rect shape-rendering="optimizeSpeed" fill="#000" x="25.862068965517242" y="232.0689655172414"  width="8.03103448275862" height="8.03103448275862"></rect><rect shape-rendering="optimizeSpeed" fill="#000" x="33.793103448275865" y="232.0689655172414"  width="8.03103448275862" height="8.03103448275862"></rect><rect shape-rendering="optimizeSpeed" fill="#000" x="41.724137931034484" y="232.0689655172414"  width="8.03103448275862" height="8.03103448275862"></rect><rect shape-rendering="optimizeSpeed" fill="#000" x="49.6551724137931" y="232.0689655172414"  width="8.03103448275862" height="8.03103448275862"></rect><rect shape-rendering="optimizeSpeed" fill="#000" x="57.58620689655173" y="232.0689655172414"  width="8.03103448275862" height="8.03103448275862"></rect><rect shape-rendering="optimizeSpeed" fill="#000" x="73.44827586206897" y="232.0689655172414"  width="8.03103448275862" height="8.03103448275862"></rect><rect shape-rendering="optimizeSpeed" fill="#000" x="81.37931034482759" y="232.0689655172414"  width="8.03103448275862" height="8.03103448275862"></rect><rect shape-rendering="optimizeSpeed" fill="#000" x="89.3103448275862" y="232.0689655172414"  width="8.03103448275862" height="8.03103448275862"></rect><rect shape-rendering="optimizeSpeed" fill="#000" x="105.17241379310346" y="232.0689655172414"  width="8.03103448275862" height="8.03103448275862"></rect><rect shape-rendering="optimizeSpeed" fill="#000" x="113.10344827586208" y="232.0689655172414"  width="8.03103448275862" height="8.03103448275862"></rect><rect shape-rendering="optimizeSpeed" fill="#000" x="136.89655172413794" y="232.0689655172414"  width="8.03103448275862" height="8.03103448275862"></rect><rect shape-rendering="optimizeSpeed" fill="#000" x="144.82758620689657" y="232.0689655172414"  width="8.03103448275862" height="8.03103448275862"></rect><rect shape-rendering="optimizeSpeed" fill="#000" x="152.75862068965517" y="232.0689655172414"  width="8.03103448275862" height="8.03103448275862"></rect><rect shape-rendering="optimizeSpeed" fill="#000" x="160.6896551724138" y="232.0689655172414"  width="8.03103448275862" height="8.03103448275862"></rect><rect shape-rendering="optimizeSpeed" fill="#000" x="168.6206896551724" y="232.0689655172414"  width="8.03103448275862" height="8.03103448275862"></rect><rect shape-rendering="optimizeSpeed" fill="#000" x="192.41379310344828" y="232.0689655172414"  width="8.03103448275862" height="8.03103448275862"></rect><rect shape-rendering="optimizeSpeed" fill="#000" x="200.34482758620692" y="232.0689655172414"  width="8.03103448275862" height="8.03103448275862"></rect><rect shape-rendering="optimizeSpeed" fill="#000" x="224.13793103448276" y="232.0689655172414"  width="8.03103448275862" height="8.03103448275862"></rect></svg>