<svg xmlns="http://www.w3.org/2000/svg" xmlns:xlink="http://www.w3.org/1999/xlink" width="24" height="24" viewBox="0 0 24 24">
    <defs>
        <path id="a" d="M7.052.072C8.332.014 8.741 0 12 0c3.259 0 3.668.014 4.948.072 1.277.058 2.15.261 2.912.558.79.307 1.459.717 2.126 1.384A5.883 5.883 0 0 1 23.37 4.14c.297.763.5 1.635.558 2.912C23.986 8.332 24 8.741 24 12c0 3.259-.014 3.668-.072 4.948-.058 1.277-.261 2.15-.558 2.912a5.883 5.883 0 0 1-1.384 2.126 5.883 5.883 0 0 1-2.126 1.384c-.763.297-1.635.5-2.912.558-1.28.058-1.689.072-4.948.072-3.259 0-3.668-.014-4.948-.072-1.277-.058-2.15-.261-2.912-.558a5.883 5.883 0 0 1-2.126-1.384A5.882 5.882 0 0 1 .63 19.86c-.297-.763-.5-1.635-.558-2.912C.014 15.668 0 15.259 0 12c0-3.259.014-3.668.072-4.948C.13 5.775.333 4.902.63 4.14a5.882 5.882 0 0 1 1.384-2.126A5.882 5.882 0 0 1 4.14.63C4.903.333 5.775.13 7.052.072zM12 5a7 7 0 1 0 0 14 7 7 0 0 0 0-14zm-4.5 7a4.5 4.5 0 1 1 9 0 4.5 4.5 0 0 1-9 0zm11.69-5.87a1.44 1.44 0 1 0 0-2.88 1.44 1.44 0 0 0 0 2.88z"/>
    </defs>
    <g fill="none" fill-rule="evenodd">
        <mask id="b" fill="#fff">
            <use xlink:href="#a"/>
        </mask>
        <use fill="#000" xlink:href="#a"/>
        <g fill="#FFF" mask="url(#b)">
            <path d="M0 0h24v24H0z"/>
        </g>
    </g>
</svg>
