<svg xmlns="http://www.w3.org/2000/svg" xmlns:xlink="http://www.w3.org/1999/xlink" width="24" height="24" viewBox="0 0 24 24">
    <defs>
        <path id="a" d="M2 0h20a2 2 0 0 1 2 2v20a2 2 0 0 1-2 2H2a2 2 0 0 1-2-2V2a2 2 0 0 1 2-2zm18.8 20.8v-6.447c0-3.167-.682-5.6-4.375-5.6-1.775 0-2.964.974-3.45 1.898h-.05V9.044H9.427V20.8h3.643v-5.815c0-1.533.29-3.019 2.187-3.019 1.872 0 1.895 1.754 1.895 3.117V20.8H20.8zM5.316 7.438c1.167 0 2.114-.95 2.114-2.12a2.116 2.116 0 0 0-4.23 0c0 1.17.944 2.12 2.116 2.12zM7.14 20.8V9.044H3.49V20.8h3.65z"/>
    </defs>
    <g fill="none" fill-rule="evenodd">
        <mask id="b" fill="#fff">
            <use xlink:href="#a"/>
        </mask>
        <use fill="#D8D8D8" xlink:href="#a"/>
        <g fill="#FFF" mask="url(#b)">
            <path d="M0 0h24v24H0z"/>
        </g>
    </g>
</svg>
